<svg width="34" height="35" viewBox="0 0 34 35" fill="none" xmlns="http://www.w3.org/2000/svg">
<circle cx="17" cy="17.4697" r="17" fill="black"/>
<path d="M9.31776 25.4697H12.8131V14.1541H9.31776V25.4697Z" fill="#B9FF66"/>
<path d="M9 10.5416C9 11.6572 9.90031 12.5604 11.0654 12.5604C12.1776 12.5604 13.0779 11.6572 13.0779 10.5416C13.0779 9.42598 12.1776 8.46973 11.0654 8.46973C9.90031 8.46973 9 9.42598 9 10.5416Z" fill="#B9FF66"/>
<path d="M22.4517 25.4697H26V19.2541C26 16.226 25.3115 13.8354 21.7632 13.8354C20.0685 13.8354 18.9034 14.7916 18.4268 15.6947H18.3738V14.1541H15.0374V25.4697H18.5327V19.8916C18.5327 18.4041 18.7975 16.9697 20.6511 16.9697C22.4517 16.9697 22.4517 18.6697 22.4517 19.9447V25.4697Z" fill="#B9FF66"/>
</svg>
